<?xml version="1.0" standalone="no"?><!DOCTYPE svg PUBLIC "-//W3C//DTD SVG 1.1//EN" "http://www.w3.org/Graphics/SVG/1.1/DTD/svg11.dtd"><svg t="1736330878583" class="icon" viewBox="0 0 1024 1024" version="1.1" xmlns="http://www.w3.org/2000/svg" p-id="4467" xmlns:xlink="http://www.w3.org/1999/xlink" width="200" height="200"><path d="M511.706311 64.021106C264.433578 64.021106 63.981197 264.47451 63.981197 511.745197s200.451358 447.724091 447.724091 447.724091c247.270686 0 447.724091-200.453405 447.724091-447.724091S758.976998 64.021106 511.706311 64.021106zM752.447281 693.122127c16.396435 16.382109 16.396435 42.971697 0 59.353806-8.197706 8.197706-18.937305 12.297071-29.676903 12.297071s-21.479197-4.099365-29.676903-12.297071L511.711428 571.093886 330.328357 752.476957c-8.197706 8.197706-18.937305 12.297071-29.676903 12.297071-10.739599 0-21.479197-4.099365-29.676903-12.297071-16.396435-16.382109-16.396435-42.971697 0-59.353806L452.356598 511.74008 270.974551 330.358033c-16.396435-16.382109-16.396435-42.971697 0-59.353806 16.396435-16.396435 42.958394-16.396435 59.353806 0L511.711428 452.386274l181.382047-181.382047c16.396435-16.396435 42.957371-16.396435 59.353806 0 16.396435 16.382109 16.396435 42.971697 0 59.353806L571.065234 511.74008 752.447281 693.122127z" fill="#bfbfbf" p-id="4468"></path></svg>