<?xml version="1.0" standalone="no"?><!DOCTYPE svg PUBLIC "-//W3C//DTD SVG 1.1//EN" "http://www.w3.org/Graphics/SVG/1.1/DTD/svg11.dtd">
<svg t="1730885849251" class="icon" viewBox="0 0 1024 1024" version="1.1"
    xmlns="http://www.w3.org/2000/svg" p-id="1071"
    xmlns:xlink="http://www.w3.org/1999/xlink" width="200" height="200">
    <path d="M502.690909 521.309091m-465.454545 0a465.454545 465.454545 0 1 0 930.909091 0 465.454545 465.454545 0 1 0-930.909091 0Z" fill="#3673FF" p-id="1072"></path>
    <path d="M484.072727 260.654545h37.236364c11.170909 0 18.618182 7.447273 18.618182 18.618182v353.745455c0 11.170909-7.447273 18.618182-18.618182 18.618182h-37.236364c-11.170909 0-18.618182-7.447273-18.618182-18.618182v-353.745455c0-9.309091 7.447273-18.618182 18.618182-18.618182zM484.072727 707.490909h37.236364c11.170909 0 18.618182 7.447273 18.618182 18.618182v37.236364c0 11.170909-7.447273 18.618182-18.618182 18.618181h-37.236364c-11.170909 0-18.618182-7.447273-18.618182-18.618181v-37.236364c0-9.309091 7.447273-18.618182 18.618182-18.618182z" fill="#FFFFFF" p-id="1073"></path>
</svg>